# AST/ASF file generated using VICON BodyLanguage
# -----------------------------------------------
:version 1.10
:name VICON
:units
  mass 1.0
  length 0.45
  angle deg
:documentation
   .ast/.asf automatically generated from VICON data using
   VICON BodyBuilder and BodyLanguage model FoxedUp or BRILLIANT.MOD
:root
   order TX TY TZ RX RY RZ
   axis XYZ
   position 0 0 0  
   orientation 0 0 0 
:bonedata
  begin
     id 1 
     name lhipjoint
     direction 0.62366 -0.717238 0.310833 
     length 2.53602 
     axis 0 0 0  XYZ
  end
  begin
     id 2 
     name lfemur
     direction 0.34202 -0.939693 0  
     length 7.40817  
     axis 0 0 20  XYZ
    dof rx ry rz
    limits (-160.0 20.0)
           (-70.0 70.0)
           (-60.0 70.0)
  end
  begin
     id 3 
     name ltibia
     direction 0.34202 -0.939693 0   
     length 7.7045   
     axis 0 0 20   XYZ
    dof rx
    limits (-10.0 170.0)
  end
  begin
     id 4 
     name lfoot
     direction 0.0673888 -0.185149 0.980397   
     length 2.09456   
     axis -90 7.62852e-016 20   XYZ
    dof rx rz
    limits (-45.0 90.0)
           (-70.0 20.0)
  end
  begin
     id 5 
     name ltoes
     direction 1.53575e-011 -4.21994e-011 1   
     length 1.05543   
     axis -90 7.62852e-016 20   XYZ
    dof rx
    limits (-90.0 20.0)
  end
  begin
     id 6 
     name rhipjoint
     direction -0.489018 -0.800347 0.346851   
     length 2.27268  
     axis 0 0 0  XYZ 
  end
  begin
     id 7 
     name rfemur
     direction -0.34202 -0.939693 0   
     length 7.55487   
     axis 0 0 -20   XYZ
    dof rx ry rz
    limits (-160.0 20.0)
           (-70.0 70.0)
           (-70.0 60.0)
  end
  begin
     id 8 
     name rtibia
     direction -0.34202 -0.939693 0   
     length 7.78969   
     axis 0 0 -20   XYZ
    dof rx
    limits (-10.0 170.0)
 end
 begin
     id 9 
     name rfoot
     direction -0.0859318 -0.236096 0.967923   
     length 2.19143  
     axis -90 -7.62852e-016 -20   XYZ
    dof rx rz
    limits (-45.0 90.0)
           (-20.0 70.0)
  end
  begin
     id 10 
     name rtoes
     direction -1.53538e-011 -4.21989e-011 1   
     length 1.09845   
     axis -90 -7.62852e-016 -20   XYZ
    dof rx
    limits (-90.0 20.0)
  end
  begin
     id 11 
     name lowerback
     direction -0.00762546 0.998978 -0.0445553   
     length 1.98161   
     axis 0 0 0   XYZ
    dof rx ry rz
    limits (-20.0 45.0)
           (-30.0 30.0)
           (-30.0 30.0)
  end
  begin
     id 12 
     name upperback
     direction 0.0422361 0.998867 -0.0219156   
     length 1.97558   
     axis 0 0 0   XYZ
    dof rx ry rz
    limits (-20.0 45.0)
           (-30.0 30.0)
           (-30.0 30.0)
  end
  begin
     id 13 
     name thorax
     direction 0.0442465 0.999021 7.47603e-005   
     length 1.97799   
     axis 0 0 0   XYZ
    dof rx ry rz
    limits (-20.0 45.0)
           (-30.0 30.0)
           (-30.0 30.0)
  end
  begin
     id 14 
     name lowerneck
     direction 0.00312169 0.984641 0.174564   
     length 1.78995   
     axis 0 0 0   XYZ
    dof rx ry rz
    limits (-20.0 45.0)
           (-30.0 30.0)
           (-30.0 30.0)
  end
  begin
     id 15 
     name upperneck
     direction -0.0383028 0.985255 -0.166749   
     length 1.83053   
     axis 0 0 0   XYZ
    dof rx ry rz
    limits (-20.0 45.0)
           (-30.0 30.0)
           (-30.0 30.0)
  end
  begin
     id 16
     name head
     direction -0.0129546 0.997059 -0.0755386  
     length 1.84088  
     axis 0 0 0   XYZ
    dof rx ry rz
    limits (-20.0 45.0)
           (-30.0 30.0)
           (-30.0 30.0)
  end
  begin
     id 17 
     name lclavicle
     direction 0.912857 0.370519 -0.171488  
     length 3.51279  
     axis 0 0 0   XYZ
    dof ry rz
    limits (-20.0 10.0)
           (0.0 20.0)
  end
  begin
     id 18 
     name lhumerus
     direction 1 -4.48962e-011 3.64361e-027   
     length 4.95663   
     axis 180 -30 -90   XYZ
    dof rx ry rz
    limits (-60.0 90.0)
           (-90.0 90.0)
           (-90.0 90.0)
  end
  begin
     id 19
     name lradius
     direction 1 -4.48974e-011 5.97202e-027   
     length 3.38177   
     axis 180 -30 -90   XYZ
    dof rx
    limits (-10.0 170.0)
  end
  begin
     id 20
     name lwrist
     direction 1 -4.4896e-011 9.83288e-027   
     length 1.69088   
     axis -9.31221e-015 90 90   XYZ
    dof ry
    limits (-180.0 0.0)
 end
  begin
     id 21 
     name lhand
     direction 1 -4.4902e-011 1.96551e-026   
     length 0.662909   
     axis -1.25475e-014 90 90   XYZ
    dof rx rz
    limits (-90.0 90.0)
           (-45.0 45.0)
  end
  begin
     id 22 
     name lfingers
     direction 1 -4.48971e-011 3.93277e-026   
     length 0.534454   
     axis -2.50945e-014 90 90   XYZ
    dof rx
    limits (0.0 90.0)
  end
  begin
     id 23
     name lthumb
     direction 0.707107 -6.34933e-011 0.707107   
     length 0.767373   
     axis -90 45 -4.80359e-014   XYZ
    dof rx rz
    limits (-45.0 45.0)
           (-45.0 45.0)
  end
  begin
     id 24 
     name rclavicle
     direction -0.900919 0.395364 -0.178976   
     length 3.40627  
     axis 0 0 0   XYZ 
    dof ry rz
    limits (-10.0 20.0)
           (-20.0 0.0)
  end
  begin
     id 25 
     name rhumerus
     direction -1 -4.48969e-011 1.03875e-027  
     length 5.08365   
     axis 180 30 90   XYZ
    dof rx ry rz
    limits (-90.0 60.0)
           (-90.0 90.0)
           (-90.0 90.0)
  end
  begin
     id 26 
     name rradius
     direction -1 -4.48951e-011 5.02733e-027   
     length 3.35984   
     axis 180 30 90   XYZ
    dof rx
    limits (-10.0 170.0)
  end
  begin
     id 27 
     name rwrist
     direction -1 -4.49011e-011 9.82828e-027   
     length 1.67992   
     axis -9.31221e-015 -90 -90   XYZ
    dof ry
    limits (-180.0 0.0)
  end
  begin
     id 28
     name rhand
     direction -1 -4.48894e-011 1.96774e-026   
     length 0.820764   
     axis -1.25475e-014 -90 -90   XYZ
    dof rx rz
    limits (-90.0 90.0)
           (-45.0 45.0)
  end
  begin
     id 29
     name rfingers
     direction -1 -4.49095e-011 3.92833e-026   
     length 0.661721   
     axis -2.50945e-014 -90 -90   XYZ
    dof rx
    limits (0.0 90.0)
  end
  begin
     id 30
     name rthumb
     direction -0.707107 -6.34881e-011 0.707107   
     length 0.950103   
     axis -90 -45 4.80359e-014   XYZ
    dof rx rz
    limits (-45.0 45.0)
           (-45.0 45.0)
  end
:hierarchy
  begin
    root lhipjoint rhipjoint lowerback
    lhipjoint lfemur
    lfemur ltibia
    ltibia lfoot
    lfoot ltoes
    rhipjoint rfemur
    rfemur rtibia
    rtibia rfoot
    rfoot rtoes
    lowerback upperback
    upperback thorax
    thorax lowerneck lclavicle rclavicle
    lowerneck upperneck
    upperneck head
    lclavicle lhumerus
    lhumerus lradius
    lradius lwrist
    lwrist lhand lthumb
    lhand lfingers
    rclavicle rhumerus
    rhumerus rradius
    rradius rwrist
    rwrist rhand rthumb
    rhand rfingers
  end

#!OML:ASF I:\golf\golf\golf 2\Subject 1\2002-09-07\Subject1.ASF
:FULLY-SPECIFIED
:DEGREES
92
root -8.11708 17.5958 -0.300069 -123.44 86.2276 -138.787
lowerback 4.82872 2.27296 -1.48525
upperback 3.76882 3.12062 4.87429
thorax 0.8333 1.55314 5.7535
lowerneck -15.1175 -2.42057 0.90936
upperneck 37.6625 -0.234864 -4.99832
head 15.8746 -0.1228 -2.21125
rclavicle -9.93923e-015 -2.22639e-014
rhumerus -4.47657 -0.588202 -101.577
rradius 24.1264
rwrist -42.2457
rhand -18.7679 -9.91726
rfingers 7.12502
rthumb 7.52922 -39.7633
lclavicle -9.93923e-015 -2.22639e-014
lhumerus -6.40101 -41.0073 108.575
lradius 23.2772
lwrist 36.7377
lhand -12.4304 67.8577
lfingers 7.12502
lthumb -166.358 82.6094
rfemur -30.66 -3.01563 10.2058
rtibia 32.3136
rfoot -10.213 -9.26249
rtoes -9.49799
lfemur -33.1184 5.28125 -9.04905
ltibia 33.7198
lfoot -13 -5.84387
ltoes -20.7778
93
root -8.11725 17.595 -0.298809 -122.635 86.1786 -138.016
lowerback 4.80791 2.31338 -1.41462
upperback 3.756 3.17759 4.88698
thorax 0.828136 1.58334 5.72416
lowerneck -15.1122 -2.43008 0.897003
upperneck 37.6772 -0.240102 -4.99738
head 15.8807 -0.125059 -2.20957
rclavicle 2.22639e-014 3.18055e-015
rhumerus -4.59631 -0.16787 -101.574
rradius 24.4165
rwrist -42.7992
rhand -19.4812 -10.0795
rfingers 7.12502
rthumb 6.84063 -39.9489
lclavicle 2.22639e-014 3.18055e-015
lhumerus -6.47486 -41.8927 108.544
lradius 23.1672
lwrist 36.0766
lhand -11.9335 67.2191
lfingers 7.12502
lthumb -165.879 83.2808
rfemur -30.7357 -3.07584 10.3088
rtibia 32.3619
rfoot -10.1859 -9.20981
rtoes -9.62566
lfemur -33.1552 5.3064 -8.96792
ltibia 33.6947
lfoot -13.0465 -5.81692
ltoes -21.5512
94
root -8.11839 17.5967 -0.296653 -122.426 86.2127 -137.812
lowerback 4.8179 2.36592 -1.43509
upperback 3.76043 3.24617 4.86331
thorax 0.819838 1.61738 5.707
lowerneck -15.1444 -2.46546 0.896144
upperneck 37.7219 -0.286704 -4.99485
head 15.9089 -0.142665 -2.21809
rclavicle -1.66979e-014 -6.20208e-014
rhumerus -4.72274 -0.0339399 -101.561
rradius 24.7089
rwrist -43.5165
rhand -19.5924 -10.0685
rfingers 7.12502
rthumb 6.73327 -39.9414
lclavicle -1.66979e-014 -6.20208e-014
lhumerus -6.43518 -42.3731 108.474
lradius 22.8897
lwrist 34.9241
lhand -12.1395 67.1271
lfingers 7.12502
lthumb -166.077 83.359
rfemur -30.7846 -3.09846 10.3099
rtibia 32.4193
rfoot -10.1999 -9.16864
rtoes -9.28102
lfemur -33.1224 5.34377 -8.97973
ltibia 33.6547
lfoot -12.9748 -5.89011
ltoes -21.064
95
root -8.11898 17.5983 -0.293752 -122.915 86.3835 -138.295
lowerback 4.82441 2.42638 -1.58692
upperback 3.77589 3.31808 4.78949
thorax 0.820457 1.64991 5.71217
lowerneck -15.1768 -2.50056 0.902935
upperneck 37.7694 -0.338317 -4.98589
head 15.9383 -0.160555 -2.22624
rclavicle 2.78299e-015 1.74931e-014
rhumerus -4.82057 -0.220541 -101.576
rradius 24.9358
rwrist -44.1069
rhand -19.394 -9.94594
rfingers 7.12502
rthumb 6.92479 -39.8127
lclavicle 2.78299e-015 1.74931e-014
lhumerus -6.25095 -42.3308 108.313
lradius 22.48
lwrist 33.6899
lhand -12.0268 67.2982
lfingers 7.12502
lthumb -165.969 83.1954
rfemur -30.8401 -3.11265 10.1693
rtibia 32.5
rfoot -10.1733 -9.14777
rtoes -9.56985
lfemur -33.0416 5.36627 -9.13467
ltibia 33.5912
lfoot -12.9571 -5.87351
ltoes -20.7441
96
root -8.11892 17.5978 -0.290293 -122.633 86.5461 -138.021
lowerback 4.8059 2.48333 -1.73357
upperback 3.7874 3.38635 4.74723
thorax 0.829684 1.68068 5.74888
lowerneck -15.1666 -2.5135 0.839065
upperneck 37.7671 -0.353381 -4.93962
head 15.935 -0.16926 -2.19695
rclavicle 1.51076e-014 -2.70347e-014
rhumerus -5.01237 0.0255239 -101.592
rradius 25.3478
rwrist -44.9981
rhand -19.684 -9.9679
rfingers 7.12502
rthumb 6.64489 -39.8436
lclavicle 1.51076e-014 -2.70347e-014
lhumerus -6.14112 -42.9167 108.161
lradius 22.2985
lwrist 33.2198
lhand -10.4883 66.8997
lfingers 7.12502
lthumb -164.487 83.7026
rfemur -30.9359 -3.06934 10.0587
rtibia 32.6108
rfoot -10.1385 -9.15816
rtoes -9.80281
lfemur -32.9731 5.42677 -9.24716
ltibia 33.5014
lfoot -12.9086 -5.85209
ltoes -20.7162
97
root -8.12018 17.5977 -0.285836 -122.404 86.7123 -137.83
lowerback 4.77667 2.56049 -1.87923
upperback 3.7897 3.48139 4.69713
thorax 0.832574 1.725 5.77553
lowerneck -15.1605 -2.55357 0.758823
upperneck 37.7471 -0.409074 -4.88678
head 15.9219 -0.196832 -2.16844
rclavicle -1.35174e-014 -1.90833e-014
rhumerus -5.27395 0.473546 -101.635
rradius 25.8879
rwrist -46.0289
rhand -20.2452 -10.1179
rfingers 7.12502
rthumb 6.10309 -40.01
lclavicle -1.35174e-014 -1.90833e-014
lhumerus -6.05736 -44.0158 108.001
lradius 22.2462
lwrist 33.0907
lhand -8.44096 66.2222
lfingers 7.12502
lthumb -162.515 84.544
rfemur -31.0819 -2.99529 9.93369
rtibia 32.748
rfoot -10.1687 -9.14696
rtoes -9.0888
lfemur -32.9291 5.55375 -9.38473
ltibia 33.3902
lfoot -12.7987 -5.87666
ltoes -20.6562
98
root -8.12267 17.5987 -0.280649 -122.696 86.8907 -138.143
lowerback 4.78993 2.63004 -2.05438
upperback 3.79329 3.56564 4.64871
thorax 0.812369 1.76393 5.81923
lowerneck -15.1487 -2.59426 0.675312
upperneck 37.7244 -0.459504 -4.84692
head 15.9065 -0.224393 -2.1439
rclavicle -4.25399e-014 -2.22639e-014
rhumerus -5.49819 0.533485 -101.676
rradius 26.31
rwrist -46.6394
rhand -20.5278 -10.2583
rfingers 7.12502
rthumb 5.83022 -40.158
lclavicle -4.25399e-014 -2.22639e-014
lhumerus -5.92548 -45.011 107.787
lradius 22.1239
lwrist 33.1255
lhand -7.15041 65.78
lfingers 7.12502
lthumb -161.274 85.1014
rfemur -31.2211 -2.91714 9.78447
rtibia 32.9
rfoot -10.2403 -9.08464
rtoes -8.39588
lfemur -32.8596 5.65367 -9.53925
ltibia 33.2623
lfoot -12.7453 -5.88105
ltoes -20.7451
99
root -8.1249 17.5984 -0.274746 -121.662 87.0485 -137.121
lowerback 4.80557 2.68551 -2.20223
upperback 3.7993 3.63311 4.63016
thorax 0.794767 1.79509 5.87965
lowerneck -15.1123 -2.59236 0.593077
upperneck 37.7019 -0.442413 -4.81394
head 15.8884 -0.224269 -2.11049
rclavicle 2.0276e-014 2.54444e-014
rhumerus -5.77374 0.742546 -101.68
rradius 26.8114
rwrist -47.339
rhand -21.111 -10.4399
rfingers 7.12502
rthumb 5.26715 -40.3544
lclavicle 2.0276e-014 2.54444e-014
lhumerus -5.76235 -45.858 107.519
lradius 21.8989
lwrist 33.3614
lhand -8.18733 66.0166
lfingers 7.12502
lthumb -162.271 84.7716
rfemur -31.3797 -2.81421 9.71202
rtibia 33.0671
rfoot -10.2937 -8.99986
rtoes -8.04171
lfemur -32.7582 5.73733 -9.60407
ltibia 33.1235
lfoot -12.7219 -5.83888
ltoes -21.0168
100
root -8.12625 17.5988 -0.266098 -118.79 87.2447 -134.226
lowerback 4.83608 2.7685 -2.35903
upperback 3.82073 3.73668 4.60361
thorax 0.780245 1.84401 5.93444
lowerneck -15.0998 -2.58424 0.536356
upperneck 37.7037 -0.416751 -4.79412
head 15.8886 -0.218485 -2.08709
rclavicle 1.55052e-014 5.08889e-014
rhumerus -6.07907 0.96689 -101.778
rradius 27.4073
rwrist -47.9986
rhand -21.989 -10.6101
rfingers 7.12502
rthumb 4.41937 -40.544
lclavicle 1.55052e-014 5.08889e-014
lhumerus -5.60588 -46.7478 107.224
lradius 21.6832
lwrist 33.4743
lhand -11.2073 66.8708
lfingers 7.12502
lthumb -165.179 83.6792
rfemur -31.5392 -2.71677 9.69175
rtibia 33.2383
rfoot -10.3041 -8.90133
rtoes -7.7674
lfemur -32.5887 5.87752 -9.64141
ltibia 32.9892
lfoot -12.7057 -5.75497
ltoes -21.4877
101
root -8.12704 17.5998 -0.254572 -113.997 87.4436 -129.347
lowerback 4.9274 2.85439 -2.52018
upperback 3.8643 3.8441 4.57992
thorax 0.753516 1.89505 5.9919
lowerneck -15.0565 -2.55787 0.48848
upperneck 37.6442 -0.354845 -4.8252
head 15.8515 -0.205039 -2.07889
rclavicle -4.77083e-015 -3.81667e-014
rhumerus -6.30808 0.725156 -102.027
rradius 27.8074
rwrist -48.0557
rhand -22.5762 -10.5198
rfingers 7.12502
rthumb 3.8524 -40.4648
lclavicle -4.77083e-015 -3.81667e-014
lhumerus -5.47863 -47.9308 106.874
lradius 21.6483
lwrist 33.9099
lhand -11.4807 66.4718
lfingers 7.12502
lthumb -165.443 84.059
rfemur -31.6449 -2.67404 9.74582
rtibia 33.3848
rfoot -10.2735 -8.73256
rtoes -8.09374
lfemur -32.3419 6.03334 -9.62019
ltibia 32.876
lfoot -12.7011 -5.61873
ltoes -21.7161
102
root -8.12797 17.5977 -0.242453 -108.437 87.5853 -123.701
lowerback 5.00746 2.92507 -2.5936
upperback 3.92163 3.93381 4.52787
thorax 0.756335 1.93798 5.97142
lowerneck -14.989 -2.51107 0.477337
upperneck 37.5171 -0.266855 -4.89952
head 15.7752 -0.183283 -2.08925
rclavicle -9.54166e-015 -6.36111e-015
rhumerus -6.48238 0.497644 -102.267
rradius 28.1176
rwrist -48.1006
rhand -22.9998 -10.3689
rfingers 7.12502
rthumb 3.44327 -40.3208
lclavicle -9.54166e-015 -6.36111e-015
lhumerus -5.21801 -49.0266 106.356
lradius 21.5572
lwrist 33.8174
lhand -7.80482 64.4845
lfingers 7.12502
lthumb -161.903 86.3373
rfemur -31.7207 -2.63533 9.83276
rtibia 33.4875
rfoot -10.2806 -8.48738
rtoes -8.31646
lfemur -32.1131 6.18608 -9.56135
ltibia 32.7836
lfoot -12.7359 -5.42647
ltoes -22.159
